# xmcd CD database file
#
# Track frame offsets:
#	150
#	13869
#	30000
#	45945
#	61014
#
# Disc length: 1015 seconds
#
# Revision: 0
# Processed by: cddbd v1.5.1PL0 Copyright (c) Steve Scherf et al.
# Submitted via: CDex 1.51
#
DISCID=2803f505
DTITLE=Mal Podmore - Country Life
DYEAR=2005
DGENRE=Country
TTITLE0=Country Life
TTITLE1=She's Coming Back
TTITLE2=The Big Day
TTITLE3=The AussieFlag
TTITLE4=Where Money Can Be Found
EXTD=YEAR: 2005
EXTT0=
EXTT1=
EXTT2=
EXTT3=
EXTT4=
PLAYORDER=
